Coordinates
version=1
nRows=10
nColumns=40
inDegrees=yes

Units are S.I. units (second, meters, Newtons, ...)
Angles are in degrees.

endheader
time	pelvis_tilt	pelvis_list	pelvis_rotation	pelvis_tx	pelvis_ty	pelvis_tz	hip_flexion_r	hip_adduction_r	hip_rotation_r	knee_angle_r	knee_angle_r_beta	ankle_angle_r	subtalar_angle_r	mtp_angle_r	hip_flexion_l	hip_adduction_l	hip_rotation_l	knee_angle_l	knee_angle_l_beta	ankle_angle_l	subtalar_angle_l	mtp_angle_l	lumbar_extension	lumbar_bending	lumbar_rotation	arm_flex_r	arm_add_r	arm_rot_r	elbow_flex_r	pro_sup_r	wrist_flex_r	wrist_dev_r	arm_flex_l	arm_add_l	arm_rot_l	elbow_flex_l	pro_sup_l	wrist_flex_l	wrist_dev_l
     29.55000000	     -2.46877712	     -4.85046261	      4.64439427	      1.12306022	      0.93273275	      0.51248713	      8.96607237	      3.41892046	    -16.52764707	     14.29609320	     14.29609320	      9.76430459	     -0.10067340	     -7.11151440	     30.78765124	    -12.00818329	      0.02479499	     33.61116895	     33.61116895	      8.87034526	    -16.87938722	     10.88963935	    -10.92187922	      6.57617831	      3.59826423	     27.89114080	    -19.80901021	      2.61885259	     61.45752076	     45.12544387	      0.00000000	      0.00000000	     -2.11232104	     -7.94457823	     -0.47373048	     26.41501372	     45.82980447	      0.00000000	      0.00000000
     29.56285714	     -2.63560921	     -4.76409130	      5.02686171	      1.12213217	      0.93258789	      0.51206816	      8.69594175	      3.35033914	    -16.69745421	     14.03450637	     14.03450637	      9.92219211	     -0.24700681	     -7.20262951	     30.78547306	    -11.54833655	      0.08180721	     30.07312805	     30.07312805	      8.81074363	    -15.59924306	     10.97798171	    -10.87985281	      6.47410230	      3.55071872	     29.05161943	    -19.77852257	      2.40482470	     62.73222809	     45.09860407	      0.00000000	      0.00000000	     -2.82243969	     -7.86275100	     -0.36974553	     26.09209288	     45.79979731	      0.00000000	      0.00000000
     29.57571429	     -2.81331257	     -4.74992315	      5.40499533	      1.12126548	      0.93228259	      0.51151279	      8.41060966	      3.35007135	    -16.93650621	     13.70151939	     13.70151939	      9.94661205	     -0.30701140	     -7.63917808	     30.74756630	    -11.17523555	      0.09401675	     26.60098756	     26.60098756	      7.96981125	    -14.10778780	      9.01685173	    -10.87164949	      6.48730505	      3.86743569	     29.27989205	    -20.25043568	      1.90561409	     66.08154906	     45.02870049	      0.00000000	      0.00000000	     -3.42504631	     -7.78833393	     -0.09569627	     26.21697315	     45.74059292	      0.00000000	      0.00000000
     29.58857143	     -3.10204398	     -4.74302982	      5.76988212	      1.12033849	      0.93181473	      0.51092715	      8.31510344	      3.33308623	    -17.12730323	     13.51550668	     13.51550668	     10.12474686	     -0.42658824	     -7.69869375	     30.94399134	    -10.77191736	      0.22909451	     23.62350280	     23.62350280	      7.98932295	    -12.23612591	      9.21878431	    -10.66379498	      6.44298813	      3.79194765	     30.34051545	    -20.10419204	      1.75457607	     67.09757487	     45.00713826	      0.00000000	      0.00000000	     -4.03999521	     -7.67762609	     -0.04824196	     25.96215121	     45.72254331	      0.00000000	      0.00000000
     29.60142857	     -3.25003443	     -4.66256300	      6.11035828	      1.11952925	      0.93159097	      0.51018821	      8.03915593	      3.24586347	    -17.27943201	     13.30718349	     13.30718349	     10.32346617	     -0.49247807	     -7.76286848	     30.97339373	    -10.35861911	      0.16169640	     20.97273054	     20.97273054	      7.94978456	    -10.07100271	      9.19871119	    -10.64870418	      6.34832100	      3.55170186	     31.29332917	    -19.77705467	      1.62300419	     68.66991165	     44.96654568	      0.00000000	      0.00000000	     -4.71765425	     -7.64453674	     -0.04632863	     25.79141368	     45.71077756	      0.00000000	      0.00000000
     29.61428571	     -3.36738380	     -4.70247828	      6.44830556	      1.11880968	      0.93126752	      0.50941987	      7.72115780	      3.29696088	    -17.51070141	     13.06494774	     13.06494774	     10.49593219	     -0.50499964	     -7.83316376	     31.10523617	    -10.13600870	     -0.15603617	     18.85745073	     18.85745073	      7.86357137	     -7.64377212	      8.53808166	    -10.71568652	      6.41066682	      3.43621802	     31.88453797	    -19.65263039	      1.35072616	     71.33861989	     44.89908331	      0.00000000	      0.00000000	     -5.38204613	     -7.58719065	     -0.16707706	     26.04435695	     45.71918103	      0.00000000	      0.00000000
     29.62714286	     -3.54327326	     -4.71788151	      6.75425613	      1.11814901	      0.93087994	      0.50851635	      7.49543963	      3.30096746	    -17.65071581	     12.89323069	     12.89323069	     10.68042417	     -0.58634954	     -7.86055500	     31.28268277	     -9.85802410	     -0.41143518	     17.08493849	     17.08493849	      7.56956062	     -5.67567827	      7.79455389	    -10.68048357	      6.40214629	      3.61637861	     32.10516348	    -19.71847720	      0.87743961	     74.01133150	     44.84452584	      0.00000000	      0.00000000	     -5.86089698	     -7.52344048	     -0.34410597	     26.40829683	     45.74129336	      0.00000000	      0.00000000
     29.64000000	     -3.71328243	     -4.65478983	      7.02440135	      1.11754187	      0.93058485	      0.50745674	      7.28886761	      3.20376990	    -17.75008056	     12.79858476	     12.79858476	     10.89886411	     -0.70720588	     -7.86305278	     31.38361379	     -9.46432215	     -0.56734914	     15.63241291	     15.63241291	      7.32426207	     -4.38242560	      7.73172907	    -10.60019198	      6.29971936	      3.55662839	     32.76545875	    -19.46390842	      0.65382205	     75.34236889	     44.81813688	      0.00000000	      0.00000000	     -6.24057536	     -7.47958572	     -0.37963942	     26.36358535	     45.74124824	      0.00000000	      0.00000000
     29.65285714	     -3.93495647	     -4.72050375	      7.27863405	      1.11700238	      0.93008927	      0.50629680	      7.14346457	      3.22845041	    -17.87762695	     12.69460407	     12.69460407	     11.08867726	     -0.77815891	     -7.86673216	     31.67857766	     -9.19845622	     -0.65596798	     14.79913745	     14.79913745	      7.13854435	     -3.60522388	      7.72318695	    -10.41157364	      6.37179339	      3.57322051	     33.52097362	    -19.31948699	      0.48924455	     76.28314915	     44.79885163	      0.00000000	      0.00000000	     -6.50626854	     -7.38897082	     -0.39715219	     26.35040712	     45.73961404	      0.00000000	      0.00000000
     29.66571429	     -3.96300521	     -4.68741672	      7.47246988	      1.11685221	      0.92992820	      0.50507854	      6.73319112	      3.18591822	    -17.94163233	     12.55982522	     12.55982522	     11.34365086	     -0.78280737	     -7.80493193	     31.59412191	     -8.94209696	     -1.14533345	     14.18656171	     14.18656171	      6.91054651	     -2.81636410	      7.46897497	    -10.46996865	      6.31040248	      3.31507556	     33.89809383	    -18.63956464	      0.34384588	     78.14310107	     44.74998910	      0.00000000	      0.00000000	     -6.95984612	     -7.35144461	     -0.47619051	     26.43487847	     45.74461370	      0.00000000	      0.00000000
